<svg id="f2e0f414-0048-4099-9dd5-6e29265a8134" data-name="Ebene 1" xmlns="http://www.w3.org/2000/svg"
     viewBox="0 0 1300 500">
    <defs>
        <style>
            .ac9e1407-a363-4648-ac69-daa25750aa06{fill:#0c4684;}.e04acc09-3068-42ba-be62-9bff28222b50{fill:#95b322;}.a711aee3-7d5b-4ba6-831c-15841b21c49e{fill:#ca9e67;}.fc8fc564-f741-4571-b00f-d3710affc77c{fill:#d0d0d0;}.ef5792e4-bc28-4507-a9c5-2fe75e9ab001{fill:#432918;}
        </style>
    </defs>
    <path class="ac9e1407-a363-4648-ac69-daa25750aa06"
          d="M445.5672,207.81364a3.99279,3.99279,0,0,1,4.34217-4.3385h65.11787c25.50475,0,39.07219,13.56377,39.07219,39.06852v66.20341c0,25.23612-13.56744,39.07219-39.07219,39.07219H482.46831v68.3745c0,2.7157-1.356,4.34218-4.34034,4.34218h-28.2186a3.99383,3.99383,0,0,1-4.34217-4.34218ZM506.34474,312.0037c7.32649,0,10.85359-4.06987,10.85359-10.85175V250.14246c0-7.05419-3.5271-10.85543-10.85359-10.85543H482.46831V312.0037Z"/>
    <path class="ac9e1407-a363-4648-ac69-daa25750aa06"
          d="M689.47954,234.94854c0,2.712-1.0837,4.61079-4.34033,4.61079H617.30748v54.26612h51.82273c2.71386,0,4.34217,1.62648,4.34217,4.61448v26.85891c0,2.98433-1.62831,4.61448-4.34217,4.61448H617.30748v54.80705h67.83173c3.25663,0,4.34033,1.35785,4.34033,4.34217v27.13122c0,2.7157-1.0837,4.34218-4.34033,4.34218H585.28948c-2.44155,0-4.06987-1.62648-4.06987-4.34218V207.81364c0-2.712,1.62832-4.3385,4.06987-4.3385h99.84973c3.25663,0,4.34033,1.62648,4.34033,4.3385Z"/>
    <path class="ac9e1407-a363-4648-ac69-daa25750aa06"
          d="M815.36207,203.47514c2.98432,0,4.34217,1.62648,4.34217,4.3385v27.1349c0,2.712-1.35785,4.33849-4.34217,4.33849H783.88868V416.19376c0,2.98433-1.35785,4.34218-4.34217,4.34218H751.3279c-2.712,0-4.34033-1.35785-4.34033-4.34218V239.287H715.51418a3.99278,3.99278,0,0,1-4.34217-4.33849v-27.1349a3.99279,3.99279,0,0,1,4.34217-4.3385Z"/>
    <path class="ac9e1407-a363-4648-ac69-daa25750aa06"
          d="M946.94278,234.94854c0,2.712-1.0837,4.61079-4.34033,4.61079H874.77072v54.26612h51.82272c2.71386,0,4.34218,1.62648,4.34218,4.61448v26.85891c0,2.98433-1.62832,4.61448-4.34218,4.61448H874.77072v54.80705h67.83173c3.25663,0,4.34033,1.35785,4.34033,4.34217v27.13122c0,2.7157-1.0837,4.34218-4.34033,4.34218H842.75272c-2.44156,0-4.06987-1.62648-4.06987-4.34218V207.81364c0-2.712,1.62831-4.3385,4.06987-4.3385h99.84973c3.25663,0,4.34033,1.62648,4.34033,4.3385Z"/>
    <path class="ac9e1407-a363-4648-ac69-daa25750aa06"
          d="M1082.8675,308.74707c0,18.18193-6.78373,30.11922-19.80656,35.81556l18.721,71.0902c.81507,3.25663-.81324,4.88311-3.79757,4.88311h-28.2186c-2.71385,0-4.06986-1.35785-4.61264-3.79757l-18.17824-68.91911h-18.72286v68.3745a3.99331,3.99331,0,0,1-4.34034,4.34218h-28.2186a3.99383,3.99383,0,0,1-4.34217-4.34218V207.81364a3.99279,3.99279,0,0,1,4.34217-4.3385h68.104c25.50474,0,39.07035,13.56377,39.07035,39.06852Zm-47.75286,3.25663c7.05419,0,10.85175-3.79756,10.85175-10.85175V250.14246c0-7.05419-3.79756-10.85543-10.85175-10.85543h-26.86259V312.0037Z"/>
    <path class="ac9e1407-a363-4648-ac69-daa25750aa06"
          d="M1179.444,203.47514c25.50658,0,39.07219,13.56377,39.07219,39.06852V271.305c0,2.712-1.356,4.34217-4.34217,4.34217H1185.9573a3.99555,3.99555,0,0,1-4.34217-4.34217V250.14246c0-7.05419-3.5271-10.85543-10.85359-10.85543H1157.7387c-6.78373,0-10.85359,3.80124-10.85359,10.85543v37.442l64.57693,21.16257c4.61264,1.90246,7.05419,4.88678,7.05419,10.04219v62.67448c0,25.50475-13.56561,39.0722-39.07219,39.0722h-30.38785c-25.23428,0-39.07219-13.56745-39.07219-39.0722V352.97467c0-2.98432,1.62831-4.34217,4.34217-4.34217h28.2186c2.98433,0,4.34034,1.35785,4.34034,4.34217v20.894c0,7.3265,4.06986,10.85175,10.85359,10.85175h13.02284c7.056,0,10.85359-3.52525,10.85359-10.85175V337.78075l-64.30463-21.16257c-4.88311-1.63016-7.3265-4.88311-7.3265-10.03852v-64.036c0-25.50475,13.83791-39.06852,39.07219-39.06852Z"/>
    <path class="e04acc09-3068-42ba-be62-9bff28222b50"
          d="M476.73547,111.62169a6.88437,6.88437,0,0,1-6.01463,6.78006v.19038a6.89025,6.89025,0,0,1,6.01463,6.78006v17.57375c0,8.97532-4.86843,13.7505-13.84569,13.7505H439.96969a1.40432,1.40432,0,0,1-1.527-1.527V81.8283a1.36391,1.36391,0,0,1,1.527-1.53086h22.92009c8.97726,0,13.84569,4.77518,13.84569,13.75439ZM464.036,96.725c0-2.48278-1.24139-3.81936-3.82131-3.81936h-8.68974v19.2911h8.68974c2.48278,0,3.82131-1.33658,3.82131-3.72611Zm0,31.89541c0-2.48278-1.24139-3.81937-3.82131-3.81937h-8.68974v19.29111h8.68974c2.48278,0,3.82131-1.24333,3.82131-3.81937Z"/>
    <path class="e04acc09-3068-42ba-be62-9bff28222b50"
          d="M486.282,94.05183c0-8.97921,4.77518-13.75439,13.7505-13.75439H510.729c8.97532,0,13.7505,4.77518,13.7505,13.75439v48.89411c0,8.97532-4.77518,13.7505-13.7505,13.7505H500.03245c-8.97532,0-13.7505-4.77518-13.7505-13.7505Zm22.05946,50.32395c2.48279,0,3.81937-1.23945,3.81937-3.81937V96.43747c0-2.48278-1.33658-3.81936-3.81937-3.81936h-5.53866c-2.48278,0-3.81937,1.33658-3.81937,3.81936v44.11894c0,2.57992,1.33659,3.81937,3.81937,3.81937Z"/>
    <path class="e04acc09-3068-42ba-be62-9bff28222b50"
          d="M534.026,81.8283a1.36469,1.36469,0,0,1,1.527-1.53086H558.473c8.97531,0,13.75049,4.87232,13.75049,13.84764v48.80086c0,8.97532-4.77518,13.7505-13.75049,13.7505H535.553a1.32591,1.32591,0,0,1-1.527-1.527Zm21.77194,62.26384c2.48473,0,3.82131-1.24333,3.82131-3.81937V96.82213c0-2.57992-1.33658-3.9165-3.82131-3.9165H547.013v51.18651Z"/>
    <path class="e04acc09-3068-42ba-be62-9bff28222b50"
          d="M619.87237,91.37866c0,.95193-.38077,1.62022-1.527,1.62022h-23.874V112.0996H612.7096a1.43459,1.43459,0,0,1,1.52891,1.6241v9.45323a1.43634,1.43634,0,0,1-1.52891,1.6241H594.47144v19.29111h23.874c1.1462,0,1.527.47791,1.527,1.527v9.55036c0,.95581-.38077,1.527-1.527,1.527H583.20179a1.37978,1.37978,0,0,1-1.43178-1.527V81.8283a1.38293,1.38293,0,0,1,1.43178-1.53086H618.3454c1.1462,0,1.527.575,1.527,1.53086Z"/>
    <path class="e04acc09-3068-42ba-be62-9bff28222b50"
          d="M668.66547,80.29744a1.4078,1.4078,0,0,1,1.52891,1.53086v73.34117a1.40487,1.40487,0,0,1-1.52891,1.527h-9.45323a1.64261,1.64261,0,0,1-1.7193-1.24333l-14.61112-40.77359h-.4779v40.48995a1.36193,1.36193,0,0,1-1.527,1.527h-9.93308a1.40432,1.40432,0,0,1-1.527-1.527V81.8283a1.40725,1.40725,0,0,1,1.527-1.53086H640.399a1.64921,1.64921,0,0,1,1.7193,1.24334l14.514,40.58709h.5731V81.8283a1.36528,1.36528,0,0,1,1.52891-1.53086Z"/>
    <path class="e04acc09-3068-42ba-be62-9bff28222b50"
          d="M679.73891,81.8283a1.40725,1.40725,0,0,1,1.527-1.53086H704.186c8.97726,0,13.7505,4.77518,13.7505,13.75439v23.30085c0,8.88207-4.77324,13.7505-13.7505,13.7505H692.72592v24.06629a1.36193,1.36193,0,0,1-1.527,1.527h-9.93308a1.40432,1.40432,0,0,1-1.527-1.527Zm21.39118,36.67058c2.578,0,3.81936-1.43372,3.81936-3.81936V96.725c0-2.48278-1.24139-3.81936-3.81936-3.81936h-8.40417v25.59325Z"/>
    <path class="e04acc09-3068-42ba-be62-9bff28222b50"
          d="M765.77763,117.35268c0,6.39929-2.38759,10.59943-6.97044,12.6043l6.58773,25.0221c.28752,1.1462-.28558,1.71736-1.33658,1.71736H754.1272a1.49946,1.49946,0,0,1-1.6241-1.33658l-6.39734-24.25668h-6.58967v24.06629a1.40432,1.40432,0,0,1-1.527,1.527H728.056a1.40432,1.40432,0,0,1-1.527-1.527V81.8283a1.40725,1.40725,0,0,1,1.527-1.53086h23.9711c8.97531,0,13.75049,4.77518,13.75049,13.75439Zm-16.80638,1.1462c2.48279,0,3.81937-1.33658,3.81937-3.81936V96.725c0-2.48278-1.33658-3.81936-3.81937-3.81936h-9.45516v25.59325Z"/>
    <path class="e04acc09-3068-42ba-be62-9bff28222b50"
          d="M773.41248,94.05183c0-8.97921,4.77518-13.75439,13.7505-13.75439h10.69656c8.97726,0,13.7505,4.77518,13.7505,13.75439v48.89411c0,8.97532-4.77324,13.7505-13.7505,13.7505H787.163c-8.97532,0-13.7505-4.77518-13.7505-13.7505ZM795.472,144.37578c2.48278,0,3.81937-1.23945,3.81937-3.81937V96.43747c0-2.48278-1.33659-3.81936-3.81937-3.81936h-5.53866c-2.48279,0-3.81937,1.33658-3.81937,3.81936v44.11894c0,2.57992,1.33658,3.81937,3.81937,3.81937Z"/>
    <path class="e04acc09-3068-42ba-be62-9bff28222b50"
          d="M859.44926,111.62169a6.88437,6.88437,0,0,1-6.01463,6.78006v.19038a6.89025,6.89025,0,0,1,6.01463,6.78006v17.57375c0,8.97532-4.86843,13.7505-13.84569,13.7505H822.68348a1.40432,1.40432,0,0,1-1.527-1.527V81.8283a1.36391,1.36391,0,0,1,1.527-1.53086h22.92009c8.97726,0,13.84569,4.77518,13.84569,13.75439ZM846.74977,96.725c0-2.48278-1.24139-3.81936-3.82131-3.81936h-8.68974v19.2911h8.68974c2.48278,0,3.82131-1.33658,3.82131-3.72611Zm0,31.89541c0-2.48278-1.24139-3.81937-3.82131-3.81937h-8.68974v19.29111h8.68974c2.48278,0,3.82131-1.24333,3.82131-3.81937Z"/>
    <path class="e04acc09-3068-42ba-be62-9bff28222b50"
          d="M907.0981,91.37866c0,.95193-.38077,1.62022-1.527,1.62022h-23.874V112.0996h18.23816a1.43459,1.43459,0,0,1,1.52891,1.6241v9.45323a1.43634,1.43634,0,0,1-1.52891,1.6241H881.69717v19.29111h23.874c1.1462,0,1.527.47791,1.527,1.527v9.55036c0,.95581-.38077,1.527-1.527,1.527H870.42751a1.37978,1.37978,0,0,1-1.43177-1.527V81.8283a1.38293,1.38293,0,0,1,1.43177-1.53086h35.14362c1.1462,0,1.527.575,1.527,1.53086Z"/>
    <path class="e04acc09-3068-42ba-be62-9bff28222b50"
          d="M952.97581,80.29744a1.36469,1.36469,0,0,1,1.527,1.53086v9.55036a1.36351,1.36351,0,0,1-1.527,1.527H941.89848v62.26384c0,1.04906-.4779,1.527-1.52891,1.527h-9.93113a1.36331,1.36331,0,0,1-1.52891-1.527V92.90563H917.8322a1.40615,1.40615,0,0,1-1.527-1.527V81.8283a1.40725,1.40725,0,0,1,1.527-1.53086Z"/>
    <path class="e04acc09-3068-42ba-be62-9bff28222b50"
          d="M999.28612,91.37866c0,.95193-.38077,1.62022-1.527,1.62022H973.8852V112.0996h18.23815a1.43459,1.43459,0,0,1,1.52892,1.6241v9.45323a1.43634,1.43634,0,0,1-1.52892,1.6241H973.8852v19.29111h23.87395c1.1462,0,1.527.47791,1.527,1.527v9.55036c0,.95581-.38077,1.527-1.527,1.527H962.61554a1.37978,1.37978,0,0,1-1.43178-1.527V81.8283a1.38293,1.38293,0,0,1,1.43178-1.53086h35.14361c1.1462,0,1.527.575,1.527,1.53086Z"/>
    <path class="e04acc09-3068-42ba-be62-9bff28222b50"
          d="M1046.16954,104.36373a1.40341,1.40341,0,0,1-1.527,1.527h-9.55036a1.36193,1.36193,0,0,1-1.527-1.527V96.725c0-2.48278-1.33659-3.81936-3.81937-3.81936h-4.96751c-2.578,0-3.81937,1.33658-3.81937,3.81936v43.54778c0,2.576,1.33659,3.81937,3.81937,3.81937h4.96751c2.48278,0,3.81937-1.24333,3.81937-3.81937v-7.64262a1.36351,1.36351,0,0,1,1.527-1.527h9.55036a1.40524,1.40524,0,0,1,1.527,1.527v10.31579c0,8.97532-4.87038,13.7505-13.7505,13.7505h-10.69656c-8.97532,0-13.84569-4.77518-13.84569-13.7505V94.05183c0-8.97921,4.87037-13.75439,13.84569-13.75439H1032.419c8.88012,0,13.7505,4.77518,13.7505,13.75439Z"/>
    <path class="e04acc09-3068-42ba-be62-9bff28222b50"
          d="M1080.92655,81.8283a1.4078,1.4078,0,0,1,1.52892-1.53086h9.83593c1.1462,0,1.62217.575,1.62217,1.53086v73.34117c0,.95581-.476,1.527-1.62217,1.527h-9.83593a1.40487,1.40487,0,0,1-1.52892-1.527V124.801H1068.703v30.36844a1.40432,1.40432,0,0,1-1.527,1.527h-9.83788c-1.14425,0-1.62216-.57116-1.62216-1.527V81.8283c0-.95582.47791-1.53086,1.62216-1.53086h9.83788a1.40725,1.40725,0,0,1,1.527,1.53086v30.36843h12.22353Z"/>
    <path class="e04acc09-3068-42ba-be62-9bff28222b50"
          d="M1142.7086,80.29744a1.4078,1.4078,0,0,1,1.52892,1.53086v73.34117a1.40487,1.40487,0,0,1-1.52892,1.527h-9.45322a1.64261,1.64261,0,0,1-1.7193-1.24333L1116.925,114.67952h-.4779v40.48995a1.36193,1.36193,0,0,1-1.527,1.527H1104.987a1.40432,1.40432,0,0,1-1.527-1.527V81.8283a1.40725,1.40725,0,0,1,1.527-1.53086h9.45517a1.64921,1.64921,0,0,1,1.7193,1.24334l14.514,40.58709h.5731V81.8283a1.36528,1.36528,0,0,1,1.52891-1.53086Z"/>
    <path class="e04acc09-3068-42ba-be62-9bff28222b50"
          d="M1165.24209,80.29744a1.40725,1.40725,0,0,1,1.527,1.53086v73.34117a1.40432,1.40432,0,0,1-1.527,1.527H1155.309a1.36193,1.36193,0,0,1-1.527-1.527V81.8283a1.36469,1.36469,0,0,1,1.527-1.53086Z"/>
    <path class="e04acc09-3068-42ba-be62-9bff28222b50"
          d="M1207.06669,156.69644a2.107,2.107,0,0,1-2.19526-1.43372l-12.03315-28.35967-3.53379,6.78005v21.10171a1.71462,1.71462,0,0,1-1.90968,1.91163h-9.16765a1.71462,1.71462,0,0,1-1.90968-1.91163V82.20907a1.71628,1.71628,0,0,1,1.90968-1.91163h9.16765a1.71628,1.71628,0,0,1,1.90968,1.91163v29.603l14.70631-30.08092a2.26884,2.26884,0,0,1,2.19721-1.43372h10.02632c1.43178,0,2.00488.95582,1.33659,2.2924L1201.33764,115.919l17.28428,38.58221c.6683,1.23945.0952,2.19526-1.43177,2.19526Z"/>
    <path class="e04acc09-3068-42ba-be62-9bff28222b50"
          d="M78.87663,33.16432,96.47618,0l0,0a60.90749,60.90749,0,0,1,11.20834,72.08925L90.085,105.25361l0,0A60.90748,60.90748,0,0,1,78.87663,33.16432Z"/>
    <path class="e04acc09-3068-42ba-be62-9bff28222b50"
          d="M57.9164,50.16329,68.11158,86.29741h0A60.9075,60.9075,0,0,1,10.19518,41.9332L0,5.79908H.00005A60.9075,60.9075,0,0,1,57.9164,50.16329Z"/>
    <path class="ac9e1407-a363-4648-ac69-daa25750aa06"
          d="M237.93505,418.26464l-.34491-.29143,5.62042-31.24,29.86487-10.75268,24.24442,20.48742-.05334.29666A172.10654,172.10654,0,0,0,319.624,381.04628l-.003-.00047-11.09388-29.73976,20.20846-24.47751,31.30241,5.26239.08918.239a170.6049,170.6049,0,0,0,14.72673-35.13165l-.18818.08363-25.66517-18.67709,3.3422-31.56508,28.7954-12.794a171.23081,171.23081,0,0,0-4.43033-26.86691l-31.53144-2.97394L331.95694,175.547,350.27176,149.764a172.36894,172.36894,0,0,0-18.01067-21.47922l-55.09362,55.08067a93.73983,93.73983,0,0,1-67.067,159.24264l-.00927,77.91333A172.80643,172.80643,0,0,0,237.93505,418.26464Z"/>
    <path class="a711aee3-7d5b-4ba6-831c-15841b21c49e"
          d="M275.41688,260.15344a65.90319,65.90319,0,0,1-130.65135.54471C189.77135,282.02655,230.41958,238.75694,275.41688,260.15344Z"/>
    <path class="e04acc09-3068-42ba-be62-9bff28222b50"
          d="M210.09125,77.23014a170.80154,170.80154,0,0,0-101.77434,33.46632l63.68241,52.54182a93.71778,93.71778,0,0,1,105.13993,20.13359l55.0871-55.0872A171.07664,171.07664,0,0,0,210.09125,77.23014Z"/>
    <path class="fc8fc564-f741-4571-b00f-d3710affc77c"
          d="M264.72413,194.33883a77.25256,77.25256,0,0,0-92.13182-12.916l-82.11192-67.7473L73.30967,131.101,142.18509,212.12a77.26184,77.26184,0,1,0,122.539-17.78121Z"/>
    <path class="ef5792e4-bc28-4507-a9c5-2fe75e9ab001"
          d="M116.35177,248.883a93.296,93.296,0,0,1,7.4056-36.49244l-53.53081-62.969A171.61476,171.61476,0,0,0,210.09125,420.53594V342.62256A93.74094,93.74094,0,0,1,116.35177,248.883Z"/>
    <path class="a711aee3-7d5b-4ba6-831c-15841b21c49e"
          d="M275.41686,259.30242a65.9032,65.9032,0,0,1-130.65136.54471C189.77133,281.17553,230.41956,237.90592,275.41686,259.30242Z"/>
    <circle class="a711aee3-7d5b-4ba6-831c-15841b21c49e" cx="80.86261" cy="197.52473" r="2.39885"/>
    <circle class="a711aee3-7d5b-4ba6-831c-15841b21c49e" cx="61.05558" cy="250.7819" r="2.39885"/>
    <circle class="a711aee3-7d5b-4ba6-831c-15841b21c49e" cx="85.66032" cy="262.9885" r="2.39885"/>
    <circle class="a711aee3-7d5b-4ba6-831c-15841b21c49e" cx="76.06491" cy="298.67181" r="2.39885"/>
    <circle class="a711aee3-7d5b-4ba6-831c-15841b21c49e" cx="114.79268" cy="330.27459" r="2.39885"/>
    <circle class="a711aee3-7d5b-4ba6-831c-15841b21c49e" cx="98.87919" cy="240.11306" r="2.39885"/>
    <circle class="a711aee3-7d5b-4ba6-831c-15841b21c49e" cx="96.48034" cy="338.36244" r="2.39885"/>
    <circle class="a711aee3-7d5b-4ba6-831c-15841b21c49e" cx="161.48485" cy="345.559" r="2.39885"/>
    <circle class="a711aee3-7d5b-4ba6-831c-15841b21c49e" cx="139.24888" cy="376.74461" r="2.39885"/>
    <circle class="a711aee3-7d5b-4ba6-831c-15841b21c49e" cx="173.10845" cy="361.3006" r="2.39885"/>
</svg>
