<?xml version="1.0" encoding="UTF-8"?>
<!DOCTYPE svg PUBLIC "-//W3C//DTD SVG 1.1//EN" "http://www.w3.org/Graphics/SVG/1.1/DTD/svg11.dtd">
<svg xmlns="http://www.w3.org/2000/svg" version="1.1" width="2079px" height="717px" style="shape-rendering:geometricPrecision; text-rendering:geometricPrecision; image-rendering:optimizeQuality; fill-rule:evenodd; clip-rule:evenodd" xmlns:xlink="http://www.w3.org/1999/xlink">
<g><path style="opacity:0.974" fill="#70be54" d="M 163.5,-0.5 C 164.167,-0.5 164.833,-0.5 165.5,-0.5C 197.088,34.7602 203.922,74.4269 186,118.5C 174.943,138.616 164.443,158.949 154.5,179.5C 153.325,179.719 152.325,179.386 151.5,178.5C 120.191,143.524 113.358,104.191 131,60.5C 141.846,40.1397 152.679,19.8064 163.5,-0.5 Z"/></g>
<g><path style="opacity:0.975" fill="#70be54" d="M -0.5,8.5 C 44.3754,11.1755 76.2088,32.8422 95,73.5C 102.323,97.7935 109.49,122.127 116.5,146.5C 77.8736,145.603 48.0403,128.936 27,96.5C 24.0602,90.9541 21.3935,85.2874 19,79.5C 12.5593,57.3576 6.0593,35.3576 -0.5,13.5C -0.5,11.8333 -0.5,10.1667 -0.5,8.5 Z"/></g>
<g><path style="opacity:0.99" fill="#71bd55" d="M 566.5,218.5 C 534.833,249.5 503.5,280.833 472.5,312.5C 425.975,268.452 371.642,254.952 309.5,272C 303.921,273.971 298.421,276.137 293,278.5C 256.204,248.705 219.704,218.538 183.5,188C 261.452,132.813 346.786,117.48 439.5,142C 488.878,156.333 531.211,181.833 566.5,218.5 Z"/></g>
<g><path style="opacity:0.946" fill="#70be54" d="M 748.5,135.5 C 765.209,135.092 781.876,135.592 798.5,137C 807.1,140.262 811.934,146.428 813,155.5C 813.667,167.833 813.667,180.167 813,192.5C 811.44,196.232 808.94,199.232 805.5,201.5C 808.94,203.768 811.44,206.768 813,210.5C 813.667,222.833 813.667,235.167 813,247.5C 811.167,258.667 804.667,265.167 793.5,267C 778.5,267.667 763.5,267.667 748.5,267C 748,266.5 747.5,266 747,265.5C 746.333,222.833 746.333,180.167 747,137.5C 747.717,136.956 748.217,136.289 748.5,135.5 Z M 770.5,158.5 C 776.561,158.21 782.561,158.543 788.5,159.5C 789.192,160.025 789.692,160.692 790,161.5C 790.667,169.833 790.667,178.167 790,186.5C 789.626,187.416 789.126,188.25 788.5,189C 782.621,190.41 776.621,190.91 770.5,190.5C 770.5,179.833 770.5,169.167 770.5,158.5 Z M 770.5,212.5 C 776.621,212.09 782.621,212.59 788.5,214C 789.126,214.75 789.626,215.584 790,216.5C 790.667,224.833 790.667,233.167 790,241.5C 789.692,242.308 789.192,242.975 788.5,243.5C 782.561,244.457 776.561,244.79 770.5,244.5C 770.5,233.833 770.5,223.167 770.5,212.5 Z"/></g>
<g><path style="opacity:0.949" fill="#70be54" d="M 848.5,135.5 C 857.173,135.334 865.84,135.5 874.5,136C 885.004,136.842 891.504,142.342 894,152.5C 894.667,185.167 894.667,217.833 894,250.5C 891.634,260.197 885.467,265.697 875.5,267C 866.167,267.667 856.833,267.667 847.5,267C 837.533,265.697 831.366,260.197 829,250.5C 828.333,217.833 828.333,185.167 829,152.5C 831.663,142.332 838.163,136.665 848.5,135.5 Z M 856.5,157.5 C 859.803,158.826 863.136,158.826 866.5,157.5C 869.115,157.856 870.948,159.189 872,161.5C 872.667,188.5 872.667,215.5 872,242.5C 870.829,243.893 869.329,244.727 867.5,245C 863.5,245.667 859.5,245.667 855.5,245C 853.939,244.682 852.772,243.849 852,242.5C 851.333,215.167 851.333,187.833 852,160.5C 853.409,159.219 854.909,158.219 856.5,157.5 Z"/></g>
<g><path style="opacity:0.936" fill="#70be54" d="M 911.5,135.5 C 928.209,135.092 944.876,135.592 961.5,137C 970.876,140.576 975.709,147.409 976,157.5C 976.667,187.167 976.667,216.833 976,246.5C 974.6,258.232 968.1,265.066 956.5,267C 941.5,267.667 926.5,267.667 911.5,267C 911,266.5 910.5,266 910,265.5C 909.333,222.833 909.333,180.167 910,137.5C 910.717,136.956 911.217,136.289 911.5,135.5 Z M 933.5,158.5 C 939.176,158.334 944.843,158.501 950.5,159C 951.333,159.833 952.167,160.667 953,161.5C 953.667,188.167 953.667,214.833 953,241.5C 952.5,242.667 951.667,243.5 950.5,244C 944.843,244.499 939.176,244.666 933.5,244.5C 933.5,215.833 933.5,187.167 933.5,158.5 Z"/></g>
<g><path style="opacity:0.947" fill="#70be54" d="M 992.5,135.5 C 1013.5,135.333 1034.5,135.5 1055.5,136C 1056,136.5 1056.5,137 1057,137.5C 1057.79,144.218 1057.63,150.884 1056.5,157.5C 1042.52,158.499 1028.52,158.833 1014.5,158.5C 1014.5,169.167 1014.5,179.833 1014.5,190.5C 1025.17,190.333 1035.84,190.5 1046.5,191C 1047.83,198 1047.83,205 1046.5,212C 1035.84,212.5 1025.17,212.667 1014.5,212.5C 1014.82,223.082 1014.49,233.582 1013.5,244C 1027.84,244.167 1042.18,244.667 1056.5,245.5C 1057.63,252.116 1057.79,258.782 1057,265.5C 1056.5,266 1056,266.5 1055.5,267C 1034.26,267.826 1013.09,267.66 992,266.5C 991.173,222.762 991.339,179.096 992.5,135.5 Z"/></g>
<g><path style="opacity:0.945" fill="#70be54" d="M 1074.5,135.5 C 1080.84,135.334 1087.18,135.5 1093.5,136C 1102.58,158.897 1111.08,182.064 1119,205.5C 1119.33,182.833 1119.67,160.167 1120,137.5C 1120.5,137 1121,136.5 1121.5,136C 1128.17,135.333 1134.83,135.333 1141.5,136C 1142,136.5 1142.5,137 1143,137.5C 1143.67,180.167 1143.67,222.833 1143,265.5C 1142.5,266 1142,266.5 1141.5,267C 1135.17,267.667 1128.83,267.667 1122.5,267C 1122,266.5 1121.5,266 1121,265.5C 1112.39,242.608 1104.05,219.608 1096,196.5C 1095.67,219.833 1095.33,243.167 1095,266.5C 1088.25,267.645 1081.41,267.811 1074.5,267C 1074,266.5 1073.5,266 1073,265.5C 1072.33,222.833 1072.33,180.167 1073,137.5C 1073.72,136.956 1074.22,136.289 1074.5,135.5 Z"/></g>
<g><path style="opacity:0.955" fill="#70be54" d="M 1160.5,135.5 C 1176.88,135.077 1193.22,135.577 1209.5,137C 1217.89,139.386 1222.72,144.886 1224,153.5C 1224.67,171.167 1224.67,188.833 1224,206.5C 1221.83,215.333 1216.33,220.833 1207.5,223C 1198.84,223.5 1190.17,223.666 1181.5,223.5C 1181.67,237.837 1181.5,252.171 1181,266.5C 1173.67,267.833 1166.33,267.833 1159,266.5C 1158.83,244.833 1158.67,223.167 1158.5,201.5C 1158.51,179.284 1159.18,157.284 1160.5,135.5 Z M 1181.5,158.5 C 1187.18,158.334 1192.84,158.501 1198.5,159C 1199.7,159.903 1200.53,161.069 1201,162.5C 1201.67,174.167 1201.67,185.833 1201,197.5C 1200.63,198.416 1200.13,199.25 1199.5,200C 1193.58,200.19 1187.75,200.69 1182,201.5C 1181.5,187.171 1181.33,172.837 1181.5,158.5 Z"/></g>
<g><path style="opacity:0.95" fill="#70be54" d="M 1239.5,135.5 C 1256.88,135.072 1274.21,135.572 1291.5,137C 1298,139.5 1302.5,144 1305,150.5C 1306.6,168.122 1306.93,185.789 1306,203.5C 1305.32,211.712 1301.48,217.879 1294.5,222C 1298.88,236.702 1302.38,251.535 1305,266.5C 1298.25,267.645 1291.41,267.811 1284.5,267C 1282.76,264.808 1281.6,262.308 1281,259.5C 1277.99,247.784 1274.82,236.117 1271.5,224.5C 1268.23,223.513 1264.9,223.18 1261.5,223.5C 1261.67,237.504 1261.5,251.504 1261,265.5C 1260.5,266 1260,266.5 1259.5,267C 1252.59,267.811 1245.75,267.645 1239,266.5C 1238.17,222.762 1238.34,179.096 1239.5,135.5 Z M 1261.5,158.5 C 1267.84,158.334 1274.18,158.5 1280.5,159C 1281,159.5 1281.5,160 1282,160.5C 1282.67,173.167 1282.67,185.833 1282,198.5C 1281.5,199 1281,199.5 1280.5,200C 1274.25,200.188 1268.09,200.688 1262,201.5C 1261.5,187.171 1261.33,172.837 1261.5,158.5 Z"/></g>
<g><path style="opacity:0.96" fill="#70be54" d="M 1338.5,135.5 C 1348.89,135.13 1359.22,135.63 1369.5,137C 1376.24,138.736 1380.74,142.903 1383,149.5C 1384.63,182.461 1384.96,215.461 1384,248.5C 1382.51,259.32 1376.35,265.487 1365.5,267C 1354.45,267.879 1343.45,267.546 1332.5,266C 1325.57,263.406 1321.07,258.573 1319,251.5C 1318.33,218.167 1318.33,184.833 1319,151.5C 1322.11,141.883 1328.61,136.549 1338.5,135.5 Z M 1346.5,157.5 C 1349.67,158.792 1352.83,158.792 1356,157.5C 1357.4,158.227 1358.9,158.727 1360.5,159C 1361.13,159.75 1361.63,160.584 1362,161.5C 1362.67,188.167 1362.67,214.833 1362,241.5C 1361.35,243.723 1359.85,244.89 1357.5,245C 1352.41,245.826 1347.41,245.492 1342.5,244C 1341.81,242.933 1341.31,241.766 1341,240.5C 1340.33,214.5 1340.33,188.5 1341,162.5C 1341.31,161.234 1341.81,160.067 1342.5,159C 1344.06,158.79 1345.39,158.29 1346.5,157.5 Z"/></g>
<g><path style="opacity:0.946" fill="#70be54" d="M 1401.5,135.5 C 1418.21,135.092 1434.88,135.592 1451.5,137C 1461.18,140.841 1466.01,148.007 1466,158.5C 1466.67,169.167 1466.67,179.833 1466,190.5C 1465.1,195.737 1462.27,199.571 1457.5,202C 1462.52,203.692 1465.36,207.192 1466,212.5C 1466.67,223.167 1466.67,233.833 1466,244.5C 1466.01,254.993 1461.18,262.159 1451.5,266C 1434.88,267.592 1418.21,267.925 1401.5,267C 1401,266.5 1400.5,266 1400,265.5C 1399.33,222.833 1399.33,180.167 1400,137.5C 1400.72,136.956 1401.22,136.289 1401.5,135.5 Z M 1422.5,159.5 C 1428.32,158.347 1434.32,158.181 1440.5,159C 1441,159.5 1441.5,160 1442,160.5C 1443.11,165.056 1443.61,169.722 1443.5,174.5C 1443.33,178.5 1443.17,182.5 1443,186.5C 1442.63,187.416 1442.13,188.25 1441.5,189C 1435.28,190.581 1428.94,190.915 1422.5,190C 1423.83,179.735 1423.83,169.569 1422.5,159.5 Z M 1422.5,213.5 C 1424.98,212.836 1427.64,212.503 1430.5,212.5C 1434.53,212.32 1438.36,212.986 1442,214.5C 1443.61,223.064 1443.94,231.73 1443,240.5C 1442.53,241.931 1441.7,243.097 1440.5,244C 1434.5,244.667 1428.5,244.667 1422.5,244C 1423.83,233.735 1423.83,223.569 1422.5,213.5 Z"/></g>
<g><path style="opacity:0.957" fill="#70be54" d="M 1482.5,135.5 C 1503.5,135.333 1524.5,135.5 1545.5,136C 1546,136.5 1546.5,137 1547,137.5C 1547.79,144.218 1547.63,150.884 1546.5,157.5C 1532.18,158.499 1517.85,158.833 1503.5,158.5C 1503.5,169.167 1503.5,179.833 1503.5,190.5C 1514.51,190.333 1525.51,190.5 1536.5,191C 1537.83,198 1537.83,205 1536.5,212C 1525.51,212.5 1514.51,212.667 1503.5,212.5C 1503.5,223.167 1503.5,233.833 1503.5,244.5C 1518.24,243.86 1532.74,244.527 1547,246.5C 1547.67,252.833 1547.67,259.167 1547,265.5C 1546.5,266 1546,266.5 1545.5,267C 1524.26,267.826 1503.09,267.66 1482,266.5C 1481.17,222.762 1481.34,179.096 1482.5,135.5 Z"/></g>
<g><path style="opacity:0.945" fill="#70be54" d="M 1563.5,135.5 C 1584.5,135.333 1605.5,135.5 1626.5,136C 1627.13,136.75 1627.63,137.584 1628,138.5C 1628.67,144.5 1628.67,150.5 1628,156.5C 1627.5,157 1627,157.5 1626.5,158C 1619.84,158.5 1613.17,158.666 1606.5,158.5C 1606.67,194.502 1606.5,230.502 1606,266.5C 1598.67,267.833 1591.33,267.833 1584,266.5C 1583.5,230.502 1583.33,194.502 1583.5,158.5C 1576.83,158.666 1570.16,158.5 1563.5,158C 1563,157.5 1562.5,157 1562,156.5C 1561.33,150.167 1561.33,143.833 1562,137.5C 1562.72,136.956 1563.22,136.289 1563.5,135.5 Z"/></g>
<g><path style="opacity:0.947" fill="#70be54" d="M 1640.5,135.5 C 1661.17,135.333 1681.84,135.5 1702.5,136C 1703,136.5 1703.5,137 1704,137.5C 1704.81,144.414 1704.64,151.248 1703.5,158C 1689.5,158.5 1675.5,158.667 1661.5,158.5C 1661.5,169.167 1661.5,179.833 1661.5,190.5C 1672.5,190.5 1683.5,190.5 1694.5,190.5C 1694.81,197.755 1694.48,204.921 1693.5,212C 1682.84,212.5 1672.17,212.667 1661.5,212.5C 1661.5,223.167 1661.5,233.833 1661.5,244.5C 1675.75,244.176 1689.91,244.51 1704,245.5C 1704.8,252.55 1704.63,259.55 1703.5,266.5C 1681.93,267.826 1660.43,267.826 1639,266.5C 1638.83,244.833 1638.67,223.167 1638.5,201.5C 1638.51,179.284 1639.18,157.284 1640.5,135.5 Z"/></g>
<g><path style="opacity:0.937" fill="#70be54" d="M 1738.5,135.5 C 1747.17,135.334 1755.84,135.5 1764.5,136C 1775.43,136.927 1781.93,142.761 1784,153.5C 1784.82,162.412 1784.65,171.245 1783.5,180C 1776.48,180.831 1769.48,180.664 1762.5,179.5C 1761.71,173.217 1761.21,166.884 1761,160.5C 1760.25,159.874 1759.42,159.374 1758.5,159C 1753.83,158.333 1749.17,158.333 1744.5,159C 1743.33,159.5 1742.5,160.333 1742,161.5C 1741.18,188.542 1741.34,215.542 1742.5,242.5C 1743.03,243.192 1743.69,243.692 1744.5,244C 1749.5,244.667 1754.5,244.667 1759.5,244C 1760,243.5 1760.5,243 1761,242.5C 1761.21,236.116 1761.71,229.783 1762.5,223.5C 1769.72,222.188 1776.89,222.188 1784,223.5C 1784.9,233.561 1784.56,243.561 1783,253.5C 1779.72,261.232 1773.89,265.732 1765.5,267C 1754.45,267.879 1743.45,267.546 1732.5,266C 1725.57,263.406 1721.07,258.573 1719,251.5C 1717.88,234.87 1717.38,218.203 1717.5,201.5C 1717.38,184.797 1717.88,168.13 1719,151.5C 1722.11,141.883 1728.61,136.549 1738.5,135.5 Z"/></g>
<g><path style="opacity:0.956" fill="#70be54" d="M 1801.5,135.5 C 1808.42,135.188 1815.26,135.521 1822,136.5C 1822.5,154.497 1822.67,172.497 1822.5,190.5C 1829.17,190.5 1835.83,190.5 1842.5,190.5C 1842.33,172.83 1842.5,155.164 1843,137.5C 1843.5,137 1844,136.5 1844.5,136C 1851.17,135.333 1857.83,135.333 1864.5,136C 1865.16,157.762 1865.5,179.595 1865.5,201.5C 1865.5,223.405 1865.16,245.238 1864.5,267C 1857.83,267.667 1851.17,267.667 1844.5,267C 1844,266.5 1843.5,266 1843,265.5C 1842.5,247.836 1842.33,230.17 1842.5,212.5C 1835.83,212.5 1829.17,212.5 1822.5,212.5C 1822.67,230.503 1822.5,248.503 1822,266.5C 1815.25,267.645 1808.41,267.811 1801.5,267C 1801,266.5 1800.5,266 1800,265.5C 1799.33,222.833 1799.33,180.167 1800,137.5C 1800.72,136.956 1801.22,136.289 1801.5,135.5 Z"/></g>
<g><path style="opacity:0.959" fill="#70be54" d="M 1882.5,135.5 C 1888.84,135.334 1895.18,135.5 1901.5,136C 1902.31,136.308 1902.97,136.808 1903.5,137.5C 1911.77,160.462 1919.93,183.462 1928,206.5C 1928.33,183.5 1928.67,160.5 1929,137.5C 1929.5,137 1930,136.5 1930.5,136C 1937.22,135.205 1943.88,135.372 1950.5,136.5C 1951.83,180.067 1951.83,223.567 1950.5,267C 1943.59,267.811 1936.75,267.645 1930,266.5C 1921.27,243.653 1912.94,220.653 1905,197.5C 1904.67,220.167 1904.33,242.833 1904,265.5C 1903.5,266 1903,266.5 1902.5,267C 1895.59,267.811 1888.75,267.645 1882,266.5C 1881.69,265.234 1881.19,264.067 1880.5,263C 1881.83,222 1881.83,181 1880.5,140C 1881.27,138.53 1881.93,137.03 1882.5,135.5 Z"/></g>
<g><path style="opacity:0.918" fill="#70be54" d="M 1968.5,135.5 C 1975.17,135.334 1981.84,135.5 1988.5,136C 1989,136.5 1989.5,137 1990,137.5C 1990.67,180.167 1990.67,222.833 1990,265.5C 1989.5,266 1989,266.5 1988.5,267C 1981.83,267.667 1975.17,267.667 1968.5,267C 1968,266.5 1967.5,266 1967,265.5C 1966.33,222.833 1966.33,180.167 1967,137.5C 1967.72,136.956 1968.22,136.289 1968.5,135.5 Z"/></g>
<g><path style="opacity:0.951" fill="#70be54" d="M 2078.5,261.5 C 2078.5,263.167 2078.5,264.833 2078.5,266.5C 2071.25,267.63 2063.91,267.796 2056.5,267C 2055.67,266.167 2054.83,265.333 2054,264.5C 2047.53,248.752 2040.86,233.085 2034,217.5C 2032.08,220.339 2030.41,223.339 2029,226.5C 2028.67,239.5 2028.33,252.5 2028,265.5C 2027.5,266 2027,266.5 2026.5,267C 2020.17,267.667 2013.83,267.667 2007.5,267C 2007,266.5 2006.5,266 2006,265.5C 2005.33,222.833 2005.33,180.167 2006,137.5C 2006.5,137 2007,136.5 2007.5,136C 2013.83,135.333 2020.17,135.333 2026.5,136C 2027,136.5 2027.5,137 2028,137.5C 2028.33,154.167 2028.67,170.833 2029,187.5C 2037,170.833 2045,154.167 2053,137.5C 2053.75,136.874 2054.58,136.374 2055.5,136C 2062.17,135.333 2068.83,135.333 2075.5,136C 2077.7,137.878 2077.86,140.045 2076,142.5C 2066.62,160.595 2057.79,178.928 2049.5,197.5C 2058.67,219.156 2068.33,240.49 2078.5,261.5 Z"/></g>
<g><path style="opacity:0.987" fill="#c1c5c6" d="M 152.5,192.5 C 200.064,230.553 247.231,269.22 294,308.5C 337.214,285.72 380.38,285.887 423.5,309C 474.559,341.629 496.059,388.129 488,448.5C 476.109,499.726 445.276,533.893 395.5,551C 333.78,565.433 284.28,547.266 247,496.5C 224.85,460.826 219.85,422.826 232,382.5C 234.635,375.232 237.802,368.232 241.5,361.5C 202.854,315.686 164.021,270.02 125,224.5C 124.333,223.5 124.333,222.5 125,221.5C 134.758,212.246 143.925,202.579 152.5,192.5 Z"/></g>
<g><path style="opacity:0.987" fill="#005ea4" d="M 566.5,218.5 C 578.235,229.31 588.568,241.31 597.5,254.5C 587.038,269.263 576.704,284.096 566.5,299C 573.53,314.893 580.696,330.726 588,346.5C 605.23,348.957 622.564,350.957 640,352.5C 642.76,353.432 644.093,355.432 644,358.5C 646.726,371.583 648.893,384.75 650.5,398C 634.169,406.009 617.669,413.842 601,421.5C 599.276,438.18 597.443,454.847 595.5,471.5C 595.39,473.374 596.056,474.874 597.5,476C 611.64,485.973 625.64,496.14 639.5,506.5C 633.213,527.193 624.88,547.027 614.5,566C 596.195,563.227 577.861,560.56 559.5,558C 549.044,571.458 538.211,584.624 527,597.5C 532.346,614.865 538.513,632.032 545.5,649C 533.47,659.528 520.47,668.694 506.5,676.5C 493.083,664.078 479.083,652.411 464.5,641.5C 448.134,647.233 431.801,653.066 415.5,659C 411.578,677.027 408.245,695.194 405.5,713.5C 397.987,714.188 390.654,715.188 383.5,716.5C 374.833,716.5 366.167,716.5 357.5,716.5C 357.5,672.167 357.5,627.833 357.5,583.5C 425.602,580.397 474.435,548.397 504,487.5C 528.533,422.68 518.033,364.347 472.5,312.5C 503.5,280.833 534.833,249.5 566.5,218.5 Z"/></g>
<g><path style="opacity:0.991" fill="#6f513f" d="M 357.5,583.5 C 357.5,627.833 357.5,672.167 357.5,716.5C 349.167,716.5 340.833,716.5 332.5,716.5C 236.447,705.544 161.947,659.877 109,579.5C 63.6731,503.872 53.0064,423.538 77,338.5C 86.4218,307.656 100.588,279.323 119.5,253.5C 149.979,289.813 180.646,325.98 211.5,362C 190.122,416.387 195.622,467.887 228,516.5C 260.192,559.516 303.359,581.85 357.5,583.5 Z"/></g>
<g><path style="opacity:1" fill="#dab175" d="M 135.5,332.5 C 141.488,332.664 142.821,335.164 139.5,340C 133.403,340.147 132.07,337.647 135.5,332.5 Z"/></g>
<g><path style="opacity:0.976" fill="#005ea5" d="M 819.5,716.5 C 800.5,716.5 781.5,716.5 762.5,716.5C 760.73,714.887 759.564,712.887 759,710.5C 758.006,590.111 758.339,469.777 760,349.5C 761.214,347.951 762.714,346.785 764.5,346C 804.5,345.333 844.5,345.333 884.5,346C 922,348.833 942.167,369 945,406.5C 945.667,448.5 945.667,490.5 945,532.5C 942.033,570.466 921.533,590.633 883.5,593C 863.503,593.5 843.503,593.667 823.5,593.5C 823.667,632.501 823.5,671.501 823,710.5C 822.436,712.887 821.27,714.887 819.5,716.5 Z M 823.5,407.5 C 839.093,408.318 854.759,408.818 870.5,409C 877.479,411.67 880.979,416.837 881,424.5C 881.667,454.5 881.667,484.5 881,514.5C 880.851,521.971 877.351,527.138 870.5,530C 854.837,530.5 839.17,530.667 823.5,530.5C 823.5,489.5 823.5,448.5 823.5,407.5 Z"/></g>
<g><path style="opacity:0.979" fill="#005ea5" d="M 1172.5,716.5 C 1112.83,716.5 1053.17,716.5 993.5,716.5C 992.496,715.317 991.662,713.984 991,712.5C 990.333,591.833 990.333,471.167 991,350.5C 991.833,348.333 993.333,346.833 995.5,346C 1024.67,345.833 1053.83,345.667 1083,345.5C 1113.23,345.345 1143.39,345.845 1173.5,347C 1174.89,348.171 1175.73,349.671 1176,351.5C 1176.67,368.5 1176.67,385.5 1176,402.5C 1175.6,405.232 1174.1,407.065 1171.5,408C 1131.83,408.333 1092.17,408.667 1052.5,409C 1053.83,439 1053.83,469 1052.5,499C 1083.56,499.022 1114.56,499.689 1145.5,501C 1146.7,501.903 1147.53,503.069 1148,504.5C 1148.67,522.5 1148.67,540.5 1148,558.5C 1146.83,559.667 1145.67,560.833 1144.5,562C 1113.83,562.333 1083.17,562.667 1052.5,563C 1053.83,593.333 1053.83,623.667 1052.5,654C 1092.89,654.017 1133.23,654.684 1173.5,656C 1174.89,657.171 1175.73,658.671 1176,660.5C 1176.67,677.167 1176.67,693.833 1176,710.5C 1175.58,713.025 1174.41,715.025 1172.5,716.5 Z"/></g>
<g><path style="opacity:0.969" fill="#005ea5" d="M 1333.5,716.5 C 1314.5,716.5 1295.5,716.5 1276.5,716.5C 1274.73,714.887 1273.56,712.887 1273,710.5C 1272.67,609.5 1272.33,508.5 1272,407.5C 1263.08,408.16 1254.08,408.493 1245,408.5C 1235.1,408.629 1225.26,408.129 1215.5,407C 1213.51,405.681 1212.35,403.848 1212,401.5C 1211.33,385.167 1211.33,368.833 1212,352.5C 1212.74,349.427 1214.57,347.26 1217.5,346C 1275.83,345.333 1334.17,345.333 1392.5,346C 1395.33,346.833 1397.17,348.667 1398,351.5C 1398.67,368.5 1398.67,385.5 1398,402.5C 1397.06,405.773 1394.89,407.606 1391.5,408C 1373.59,408.825 1355.76,408.658 1338,407.5C 1337.67,508.5 1337.33,609.5 1337,710.5C 1336.58,713.025 1335.41,715.025 1333.5,716.5 Z"/></g>
<g><path style="opacity:0.979" fill="#005ea5" d="M 1612.5,716.5 C 1552.5,716.5 1492.5,716.5 1432.5,716.5C 1431.5,715.317 1430.66,713.984 1430,712.5C 1429,591.086 1429.34,469.753 1431,348.5C 1432.17,347.107 1433.67,346.273 1435.5,346C 1493.5,345.333 1551.5,345.333 1609.5,346C 1612.67,346.5 1614.5,348.333 1615,351.5C 1615.67,368.5 1615.67,385.5 1615,402.5C 1614.6,405.232 1613.1,407.065 1610.5,408C 1571.17,408.5 1531.83,408.667 1492.5,408.5C 1492.5,438.833 1492.5,469.167 1492.5,499.5C 1522.17,499.333 1551.84,499.5 1581.5,500C 1583.85,500.346 1585.68,501.513 1587,503.5C 1587.67,521.833 1587.67,540.167 1587,558.5C 1586.5,560.333 1585.33,561.5 1583.5,562C 1553.17,562.5 1522.84,562.667 1492.5,562.5C 1492.5,593.167 1492.5,623.833 1492.5,654.5C 1532.56,654.017 1572.56,654.517 1612.5,656C 1613.89,657.171 1614.73,658.671 1615,660.5C 1615.67,677.5 1615.67,694.5 1615,711.5C 1614.63,713.452 1613.8,715.118 1612.5,716.5 Z"/></g>
<g><path style="opacity:0.98" fill="#005ea5" d="M 1842.5,716.5 C 1823.5,716.5 1804.5,716.5 1785.5,716.5C 1784.16,714.99 1783,713.323 1782,711.5C 1771.53,671.766 1760.87,632.099 1750,592.5C 1740,593.833 1730,593.833 1720,592.5C 1719.67,632.5 1719.33,672.5 1719,712.5C 1718.34,713.984 1717.5,715.317 1716.5,716.5C 1697.5,716.5 1678.5,716.5 1659.5,716.5C 1657.86,715.251 1656.7,713.584 1656,711.5C 1655.33,591.5 1655.33,471.5 1656,351.5C 1656.83,348.667 1658.67,346.833 1661.5,346C 1702.83,345.333 1744.17,345.333 1785.5,346C 1824.94,348.774 1845.44,369.941 1847,409.5C 1847.93,453.519 1847.6,497.519 1846,541.5C 1842.95,562.536 1832.11,578.036 1813.5,588C 1824.08,627.812 1834.58,667.645 1845,707.5C 1846.07,711.1 1845.24,714.1 1842.5,716.5 Z M 1719.5,407.5 C 1737.09,408.32 1754.76,408.82 1772.5,409C 1777,410.833 1780.17,414 1782,418.5C 1782.67,452.5 1782.67,486.5 1782,520.5C 1780.07,525.428 1776.57,528.594 1771.5,530C 1754.17,530.5 1736.84,530.667 1719.5,530.5C 1719.5,489.5 1719.5,448.5 1719.5,407.5 Z"/></g>
<g><path style="opacity:0.982" fill="#005ea5" d="M 2078.5,402.5 C 2078.5,423.5 2078.5,444.5 2078.5,465.5C 2077.13,468.355 2074.79,469.855 2071.5,470C 2053.43,470.959 2035.43,470.626 2017.5,469C 2016.3,468.097 2015.47,466.931 2015,465.5C 2014.67,450.833 2014.33,436.167 2014,421.5C 2013.36,414.868 2009.86,410.702 2003.5,409C 1991.5,408.333 1979.5,408.333 1967.5,409C 1962,410.5 1958.5,414 1957,419.5C 1956.17,442.84 1956.33,466.174 1957.5,489.5C 1994.16,501.666 2030.83,513.832 2067.5,526C 2073.18,528.505 2076.84,532.671 2078.5,538.5C 2078.5,578.833 2078.5,619.167 2078.5,659.5C 2075.11,691.323 2057.77,710.323 2026.5,716.5C 1998.83,716.5 1971.17,716.5 1943.5,716.5C 1913.96,711.125 1897.13,693.458 1893,663.5C 1892.02,640.745 1892.35,618.078 1894,595.5C 1894.75,594.874 1895.58,594.374 1896.5,594C 1915.17,593.333 1933.83,593.333 1952.5,594C 1954.05,595.214 1955.22,596.714 1956,598.5C 1956.33,613.5 1956.67,628.5 1957,643.5C 1958.5,649 1962,652.5 1967.5,654C 1979.5,654.667 1991.5,654.667 2003.5,654C 2009.86,652.298 2013.36,648.132 2014,641.5C 2014.5,619.503 2014.67,597.503 2014.5,575.5C 1977.15,563.44 1939.82,551.274 1902.5,539C 1898.74,537.539 1895.91,535.039 1894,531.5C 1892.35,487.559 1892.02,443.559 1893,399.5C 1898.41,365.093 1918.58,347.26 1953.5,346C 1978.19,345.105 2002.86,345.438 2027.5,347C 2058.34,352.87 2075.34,371.37 2078.5,402.5 Z"/></g>
<g><path style="opacity:1" fill="#dbb276" d="M 166.5,404.5 C 171.805,405.241 173.139,407.741 170.5,412C 164.202,412.495 162.868,409.995 166.5,404.5 Z"/></g>
<g><path style="opacity:1" fill="#d6ae73" d="M 101.5,423.5 C 107.704,423.314 109.037,425.814 105.5,431C 99.4034,431.147 98.0701,428.647 101.5,423.5 Z"/></g>
<g><path style="opacity:1" fill="#d7ae74" d="M 403.5,431.5 C 424.082,429.639 444.082,432.139 463.5,439C 466.69,439.568 468.357,441.401 468.5,444.5C 459.847,489.651 433.847,519.818 390.5,535C 336.508,547.788 293.675,531.621 262,486.5C 253.974,472.752 248.974,458.085 247,442.5C 256.519,447.672 266.685,450.839 277.5,452C 288.167,452.667 298.833,452.667 309.5,452C 341.009,445.453 372.343,438.619 403.5,431.5 Z"/></g>
<g><path style="opacity:1" fill="#d9b074" d="M 143.5,443.5 C 148.984,443.481 150.65,445.981 148.5,451C 141.745,451.756 140.078,449.256 143.5,443.5 Z"/></g>
<g><path style="opacity:1" fill="#d9b075" d="M 127.5,504.5 C 133.488,504.664 134.821,507.164 131.5,512C 125.202,512.495 123.868,509.995 127.5,504.5 Z"/></g>
<g><path style="opacity:1" fill="#dab175" d="M 193.5,558.5 C 199.488,558.664 200.821,561.164 197.5,566C 191.403,566.147 190.07,563.647 193.5,558.5 Z"/></g>
<g><path style="opacity:1" fill="#d6ae73" d="M 161.5,572.5 C 168.004,572.138 169.671,574.638 166.5,580C 160.785,580.401 159.119,577.901 161.5,572.5 Z"/></g>
<g><path style="opacity:1" fill="#ddb476" d="M 272.5,584.5 C 277.984,584.481 279.65,586.981 277.5,592C 275.559,592.743 273.726,592.576 272,591.5C 271.444,589.115 271.61,586.782 272.5,584.5 Z"/></g>
<g><path style="opacity:1" fill="#dcb376" d="M 292.5,611.5 C 298.488,611.664 299.821,614.164 296.5,619C 290.403,619.147 289.07,616.647 292.5,611.5 Z"/></g>
<g><path style="opacity:1" fill="#e1b778" d="M 235.5,637.5 C 240.262,638.092 241.596,640.592 239.5,645C 233.202,645.495 231.868,642.995 235.5,637.5 Z"/></g>
</svg>
