<?xml version="1.0" standalone="no"?>
<!DOCTYPE svg PUBLIC "-//W3C//DTD SVG 20010904//EN"
 "http://www.w3.org/TR/2001/REC-SVG-20010904/DTD/svg10.dtd">
<svg version="1.0" xmlns="http://www.w3.org/2000/svg"
 width="2079.000000pt" height="717.000000pt" viewBox="0 0 2079.000000 717.000000"
 preserveAspectRatio="xMidYMid meet">

<g transform="translate(0.000000,717.000000) scale(0.100000,-0.100000)"
fill="#000000" stroke="none">
<path d="M5198 4512 l-466 -467 64 -75 c198 -231 328 -515 373 -817 18 -120
14 -365 -9 -499 -38 -221 -133 -454 -263 -643 -70 -102 -250 -286 -356 -365
-221 -164 -479 -269 -746 -306 -102 -14 -328 -14 -425 0 -742 105 -1308 696
-1381 1440 -20 217 4 425 75 643 l42 128 -455 535 -454 534 -29 -42 c-353
-521 -523 -1111 -505 -1743 17 -564 183 -1079 498 -1545 115 -170 197 -269
354 -426 230 -231 457 -398 738 -540 392 -199 773 -298 1227 -320 165 -8 546
19 567 39 2 2 24 121 50 263 26 144 52 264 59 270 7 5 123 50 258 98 l244 88
194 -164 c106 -89 201 -169 209 -176 14 -10 33 -2 125 59 169 111 266 189 259
208 -4 9 -47 123 -96 254 l-89 238 166 202 c92 111 170 206 174 210 4 4 127
-13 275 -38 147 -25 268 -45 270 -43 10 11 111 223 141 295 48 115 105 284 99
293 -2 4 -99 76 -215 160 -116 84 -212 156 -215 159 -7 12 51 531 61 540 5 5
113 54 239 110 127 56 233 105 237 109 9 9 -14 190 -43 339 l-22 112 -41 6
c-23 3 -140 14 -261 25 -121 12 -225 22 -231 24 -5 2 -61 114 -122 249 l-113
245 141 196 c77 109 147 208 156 221 15 23 14 27 -32 87 -60 78 -192 234 -231
270 l-29 28 -466 -468z m-3788 -687 c26 -32 -13 -81 -47 -59 -35 22 -23 74 17
74 10 0 23 -7 30 -15z m304 -721 c22 -21 20 -40 -6 -58 -39 -28 -79 13 -52 53
18 25 37 27 58 5z m-653 -174 c11 -6 19 -21 19 -35 0 -20 -24 -45 -44 -45 -10
0 -36 32 -36 45 0 13 26 45 36 45 3 0 14 -5 25 -10z m427 -212 c19 -19 14 -56
-9 -68 -41 -22 -82 46 -41 69 23 14 36 13 50 -1z m-164 -614 c31 -30 8 -69
-36 -62 -26 3 -37 41 -18 64 16 18 35 18 54 -2z m664 -536 c30 -30 0 -75 -43
-64 -41 11 -29 76 15 76 9 0 21 -5 28 -12z m-308 -148 c23 -44 -29 -80 -64
-44 -19 18 -19 20 -6 45 14 25 56 25 70 -1z m1104 -116 c19 -18 19 -20 6 -45
-6 -11 -21 -19 -35 -19 -20 0 -45 24 -45 44 0 10 32 36 45 36 7 0 21 -7 29
-16z m196 -269 c26 -32 -13 -81 -47 -59 -35 22 -23 74 17 74 10 0 23 -7 30
-15z m-576 -264 c18 -20 13 -47 -13 -60 -21 -11 -39 -4 -52 21 -8 15 -7 24 7
39 22 24 36 24 58 0z"/>
<path d="M7625 3676 l-25 -25 0 -1801 0 -1801 25 -24 24 -25 266 0 266 0 24
25 25 24 0 595 0 594 353 4 c319 4 359 7 428 26 226 62 363 204 416 431 16 69
18 139 18 781 0 704 0 705 -23 784 -33 114 -69 182 -133 251 -72 76 -140 117
-254 152 l-90 27 -647 4 -648 3 -25 -25z m1112 -607 c30 -15 50 -33 64 -60 19
-38 19 -57 17 -548 -3 -497 -4 -510 -24 -537 -51 -69 -51 -69 -320 -72 l-244
-3 0 621 0 620 232 0 c215 0 235 -2 275 -21z"/>
<path d="M9942 3684 l-22 -15 0 -1819 0 -1820 23 -15 c21 -14 126 -15 905 -13
707 2 884 6 894 16 10 10 13 76 13 288 0 261 -1 276 -19 290 -17 12 -116 14
-613 14 l-593 0 0 470 0 470 458 0 c432 0 460 1 475 18 15 16 17 51 17 290 0
269 0 271 -22 286 -20 14 -82 16 -475 16 l-453 0 0 465 0 465 593 0 c497 0
596 2 613 14 18 14 19 29 19 291 0 262 -1 277 -19 291 -17 12 -155 14 -896 14
-776 0 -878 -2 -898 -16z"/>
<path d="M12155 3675 l-25 -24 0 -256 0 -256 25 -24 24 -25 281 0 280 0 0
-1520 0 -1521 25 -25 25 -25 275 3 c208 2 277 6 287 16 11 11 13 305 16 1542
l2 1530 281 0 280 0 24 25 25 24 0 261 c0 247 -1 261 -20 280 -20 20 -33 20
-900 20 l-881 0 -24 -25z"/>
<path d="M14330 3680 c-20 -20 -20 -33 -20 -1830 0 -1801 0 -1810 20 -1830 20
-20 30 -20 906 -18 864 3 886 3 900 22 11 16 14 71 14 283 0 250 -1 264 -20
283 -20 20 -33 20 -615 20 l-595 0 0 470 0 470 459 0 c507 0 484 -3 496 63 3
18 5 139 3 270 -3 237 -3 239 -27 258 -22 18 -45 19 -477 19 l-454 0 0 465 0
465 599 0 600 0 15 22 c14 19 16 64 16 285 0 250 -1 264 -20 283 -20 20 -33
20 -900 20 -867 0 -880 0 -900 -20z"/>
<path d="M16591 3681 l-21 -21 0 -1809 0 -1810 26 -20 c25 -20 39 -21 289 -21
236 0 265 2 284 18 21 17 21 19 24 617 l2 600 162 3 c147 2 162 1 167 -15 3
-10 73 -279 157 -598 129 -493 155 -583 176 -603 24 -22 28 -22 286 -22 286 0
307 4 307 55 0 14 -72 298 -160 632 -88 334 -156 609 -151 611 6 2 36 20 68
41 121 79 203 201 240 360 16 69 18 139 18 771 0 783 1 777 -76 929 -68 137
-183 225 -357 274 -75 21 -96 21 -749 25 -667 3 -672 3 -692 -17z m1175 -617
c15 -11 37 -33 48 -48 21 -27 21 -38 21 -546 0 -508 0 -519 -21 -546 -11 -15
-33 -37 -48 -48 -26 -20 -40 -21 -299 -21 l-272 0 -3 605 c-1 333 0 611 3 618
4 10 61 12 274 10 254 -3 271 -4 297 -24z"/>
<path d="M19455 3689 c-319 -48 -484 -233 -515 -577 -7 -71 -10 -335 -8 -667
3 -512 4 -553 22 -587 10 -21 33 -47 50 -58 18 -10 284 -102 592 -203 l559
-184 0 -339 c0 -323 -1 -341 -21 -379 -14 -27 -34 -47 -64 -62 -41 -21 -58
-23 -210 -23 -152 0 -169 2 -210 22 -33 17 -51 35 -67 68 -22 42 -23 56 -23
260 0 179 -3 219 -16 238 -15 22 -17 22 -298 22 -251 0 -285 -2 -297 -17 -11
-12 -15 -70 -17 -247 -7 -478 30 -640 180 -788 64 -64 164 -117 268 -144 84
-22 720 -32 856 -14 129 17 230 52 310 109 105 74 164 162 206 308 23 78 23
82 23 728 l0 650 -23 33 c-13 18 -40 41 -60 51 -21 10 -283 99 -584 197 l-548
179 0 345 c0 339 0 347 23 390 14 30 36 53 62 67 37 21 52 23 215 23 163 0
178 -2 215 -23 72 -40 79 -67 85 -335 5 -219 6 -235 25 -248 17 -12 66 -14
293 -12 260 3 274 4 288 23 23 31 15 684 -9 770 -48 169 -146 295 -281 360
-135 65 -159 68 -581 71 -209 1 -407 -2 -440 -7z"/>
</g>
</svg>
