<svg id="a432b5b8-49ae-4077-b277-7b9f52a14059" data-name="Ebene 1" xmlns="http://www.w3.org/2000/svg" viewBox="0 0 2409.44882 2658.5109"><defs><style>.b4f62913-09f8-4ff4-9a94-aff4168c26f0{fill:#95b322;}.bf6a5bdf-6f33-47cf-a8b3-38c7f1108b80{fill:#0c4684;}.a276df4e-4d87-43c8-ab21-4b358c54f965{fill:#ca9e67;}.f5f405ad-ebe5-4acf-8687-b0364e42ed38{fill:#d0d0d0;}.e4402723-6a27-4c19-8971-7077270f3081{fill:#432918;}</style></defs><path class="b4f62913-09f8-4ff4-9a94-aff4168c26f0" d="M498.63606,209.65561,609.8955,0l.00021.0002a385.04015,385.04015,0,0,1,70.856,455.72814L569.49226,665.384l-.00021-.0002A385.04017,385.04017,0,0,1,498.63606,209.65561Z"/><path class="b4f62913-09f8-4ff4-9a94-aff4168c26f0" d="M366.13133,317.11833l64.45111,228.42984h-.00029A385.04016,385.04016,0,0,1,64.45111,265.09L0,36.66018l.00029,0A385.04017,385.04017,0,0,1,366.13133,317.11833Z"/><path class="bf6a5bdf-6f33-47cf-a8b3-38c7f1108b80" d="M1504.159,2644.15239l-2.18038-1.84231,35.53068-197.49059,188.79737-67.97541,153.26647,129.51573-.33716,1.87538a1088.005,1088.005,0,0,0,141.33774-99.36689l-.01914-.003-70.13246-188.00649,127.75228-154.73995,197.88507,33.26732.5638,1.51072a1078.51724,1078.51724,0,0,0,93.0983-222.0925l-1.18962.52869-162.248-118.07135,21.12845-199.54564,182.03645-80.88017a1082.46473,1082.46473,0,0,0-28.00732-169.84512l-199.333-18.80038-83.56936-182.43154,115.78123-162.99259A1089.67564,1089.67564,0,0,0,2100.462,810.98072l-348.28653,348.20467a590.716,590.716,0,0,1,168.68625,414.16289c-.03877,327.2744-265.3922,592.56352-592.66528,592.52467l-.05855,492.54634A1092.43453,1092.43453,0,0,0,1504.159,2644.15239Z"/><path class="a276df4e-4d87-43c8-ab21-4b358c54f965" d="M1741.10873,1644.61751c-26.14854,204.9383-201.11845,363.33656-413.15889,363.33656-210.80306,0-385.07349-156.62264-412.78255-359.893C1199.68155,1782.89321,1456.64832,1509.3548,1741.10873,1644.61751Z"/><path class="b4f62913-09f8-4ff4-9a94-aff4168c26f0" d="M1328.13827,488.22739a1079.7595,1079.7595,0,0,0-643.389,211.56476l402.5824,332.15475A589.54987,589.54987,0,0,1,1328.13827,980.774c166.13727,0,316.211,68.30212,423.85877,178.4518l348.24532-348.24591C1903.60911,611.74908,1630.30435,488.22739,1328.13827,488.22739Z"/><path class="f5f405ad-ebe5-4acf-8687-b0364e42ed38" d="M1673.51211,1228.55586a488.36913,488.36913,0,0,0-582.43164-81.65123L571.99179,718.62513,463.44329,828.78362l435.41117,512.18015a488.40487,488.40487,0,0,0,83.91238,578.33736c190.73991,190.73991,500.00536,190.7405,690.74527,0C1864.25143,1728.56239,1864.252,1419.29636,1673.51211,1228.55586Z"/><path class="e4402723-6a27-4c19-8971-7077270f3081" d="M735.54346,1573.36885a589.79179,589.79179,0,0,1,46.81612-230.69506L443.95273,944.60139c-126.45632,177.41135-200.95651,394.33219-200.95651,628.76746,0,599.23326,485.8125,1085.14205,1085.14205,1085.14205V2165.96425C1000.864,2165.96425,735.54346,1900.64312,735.54346,1573.36885Z"/><path class="a276df4e-4d87-43c8-ab21-4b358c54f965" d="M1741.10859,1639.23758c-26.14854,204.93831-201.11845,363.33657-413.15889,363.33657-210.80306,0-385.07349-156.62265-412.78255-359.893C1199.68141,1777.51329,1456.64818,1503.97487,1741.10859,1639.23758Z"/><circle class="a276df4e-4d87-43c8-ab21-4b358c54f965" cx="511.1909" cy="1248.69626" r="15.16489"/><circle class="a276df4e-4d87-43c8-ab21-4b358c54f965" cx="385.97633" cy="1585.37325" r="15.16489"/><circle class="a276df4e-4d87-43c8-ab21-4b358c54f965" cx="541.52067" cy="1662.53998" r="15.16489"/><circle class="a276df4e-4d87-43c8-ab21-4b358c54f965" cx="480.86112" cy="1888.11991" r="15.16489"/><circle class="a276df4e-4d87-43c8-ab21-4b358c54f965" cx="725.68729" cy="2087.90384" r="15.16489"/><circle class="a276df4e-4d87-43c8-ab21-4b358c54f965" cx="625.08669" cy="1517.92781" r="15.16489"/><circle class="a276df4e-4d87-43c8-ab21-4b358c54f965" cx="609.9218" cy="2139.03295" r="15.16489"/><circle class="a276df4e-4d87-43c8-ab21-4b358c54f965" cx="1020.86221" cy="2184.52762" r="15.16489"/><circle class="a276df4e-4d87-43c8-ab21-4b358c54f965" cx="880.2926" cy="2381.67433" r="15.16489"/><circle class="a276df4e-4d87-43c8-ab21-4b358c54f965" cx="1094.34336" cy="2284.04166" r="15.16489"/></svg>