<svg id="Ebene_1" data-name="Ebene 1" xmlns="http://www.w3.org/2000/svg" viewBox="0 0 2409.45 954.51"><defs><style>.cls-1{fill:#034f8b;}.cls-2{fill:#8db43d;}.cls-3{fill:#3c2415;}.cls-4{fill:#c49a6c;}.cls-5{fill:#c7c8ca;}</style></defs><path class="cls-1" d="M883.46,278.42c0-5.36,3.22-8.57,8.58-8.57H1020.6c50.35,0,77.13,26.78,77.13,77.13V477.69c0,49.82-26.78,77.13-77.13,77.13H956.32v135c0,5.36-2.68,8.57-8.57,8.57H892c-5.36,0-8.58-3.21-8.58-8.57Zm120,205.69c14.47,0,21.43-8,21.43-21.42V362c0-13.93-7-21.43-21.43-21.43H956.32V484.11Z"/><path class="cls-1" d="M1365,332c0,5.35-2.14,9.1-8.57,9.1H1222.52V448.23h102.31c5.36,0,8.57,3.21,8.57,9.11v53c0,5.89-3.21,9.11-8.57,9.11H1222.52v108.2h133.92c6.43,0,8.57,2.69,8.57,8.58v53.56c0,5.36-2.14,8.57-8.57,8.57H1159.31c-4.82,0-8-3.21-8-8.57V278.42c0-5.36,3.22-8.57,8-8.57h197.13c6.43,0,8.57,3.21,8.57,8.57Z"/><path class="cls-1" d="M1613.53,269.85c5.89,0,8.57,3.21,8.57,8.57V332c0,5.35-2.68,8.57-8.57,8.57h-62.14V689.81c0,5.89-2.68,8.57-8.57,8.57h-55.71c-5.36,0-8.57-2.68-8.57-8.57V340.56H1416.4c-5.35,0-8.57-3.22-8.57-8.57V278.42c0-5.36,3.22-8.57,8.57-8.57Z"/><path class="cls-1" d="M1873.3,332c0,5.35-2.14,9.1-8.57,9.1H1730.81V448.23h102.31c5.36,0,8.58,3.21,8.58,9.11v53c0,5.89-3.22,9.11-8.58,9.11H1730.81v108.2h133.92c6.43,0,8.57,2.69,8.57,8.58v53.56c0,5.36-2.14,8.57-8.57,8.57H1667.6c-4.82,0-8-3.21-8-8.57V278.42c0-5.36,3.21-8.57,8-8.57h197.13c6.43,0,8.57,3.21,8.57,8.57Z"/><path class="cls-1" d="M2141.65,477.69c0,35.89-13.4,59.46-39.11,70.7l37,140.35c1.61,6.43-1.6,9.64-7.49,9.64H2076.3c-5.36,0-8-2.68-9.11-7.49L2031.3,554.82h-37v135c0,5.36-3.22,8.57-8.57,8.57h-55.71c-5.36,0-8.57-3.21-8.57-8.57V278.42c0-5.36,3.21-8.57,8.57-8.57h134.45c50.35,0,77.14,26.78,77.14,77.13Zm-94.28,6.42c13.93,0,21.42-7.49,21.42-21.42V362c0-13.93-7.49-21.43-21.42-21.43h-53V484.11Z"/><path class="cls-1" d="M2332.31,269.85c50.36,0,77.14,26.78,77.14,77.13v56.79c0,5.35-2.68,8.57-8.57,8.57h-55.71c-5.36,0-8.57-3.22-8.57-8.57V362c0-13.93-7-21.43-21.43-21.43h-25.71c-13.39,0-21.43,7.5-21.43,21.43v73.92l127.49,41.78c9.11,3.75,13.93,9.64,13.93,19.82V621.25c0,50.35-26.78,77.13-77.14,77.13h-60c-49.82,0-77.14-26.78-77.14-77.13V565c0-5.89,3.22-8.57,8.57-8.57h55.71c5.89,0,8.57,2.68,8.57,8.57v41.25c0,14.47,8,21.42,21.43,21.42h25.71c13.93,0,21.43-6.95,21.43-21.42V535l-127-41.78c-9.64-3.21-14.46-9.64-14.46-19.81V347c0-50.35,27.32-77.13,77.14-77.13Z"/><path class="cls-2" d="M505.28,80.35c0,9.07-6.61,15.93-15.42,17.39v.49c8.81,1.47,15.42,8.33,15.42,17.39V160.7c0,23-12.48,35.27-35.51,35.27H411a3.61,3.61,0,0,1-3.92-3.92V3.93c0-2.7,1.47-3.93,3.92-3.93h58.79c23,0,35.51,12.25,35.51,35.28ZM472.71,42.14c0-6.37-3.19-9.8-9.8-9.8H440.62V81.82h22.29c6.37,0,9.8-3.42,9.8-9.55Zm0,81.81c0-6.37-3.19-9.8-9.8-9.8H440.62v49.49h22.29c6.37,0,9.8-3.19,9.8-9.8Z"/><path class="cls-2" d="M529.77,35.28C529.77,12.25,542,0,565,0h27.44c23,0,35.27,12.25,35.27,35.28V160.7c0,23-12.25,35.27-35.27,35.27H565c-23,0-35.27-12.25-35.27-35.27Zm56.59,129.09c6.36,0,9.79-3.18,9.79-9.8V41.4c0-6.37-3.43-9.8-9.79-9.8H572.15c-6.37,0-9.8,3.43-9.8,9.8V154.57c0,6.62,3.43,9.8,9.8,9.8Z"/><path class="cls-2" d="M652.24,3.93c0-2.45,1.22-3.93,3.91-3.93H715c23,0,35.27,12.5,35.27,35.52V160.7c0,23-12.25,35.27-35.27,35.27h-58.8c-2.69,0-3.91-1.23-3.91-3.92Zm55.84,159.71c6.38,0,9.81-3.19,9.81-9.8V42.39c0-6.62-3.43-10-9.81-10H685.55v131.3Z"/><path class="cls-2" d="M872.44,28.42c0,2.45-1,4.16-3.92,4.16H807.28v49h46.79c2.45,0,3.92,1.47,3.92,4.17V110c0,2.69-1.47,4.16-3.92,4.16H807.28v49.49h61.24c2.94,0,3.92,1.22,3.92,3.91v24.5c0,2.45-1,3.92-3.92,3.92H778.38c-2.21,0-3.68-1.47-3.68-3.92V3.93c0-2.45,1.47-3.93,3.68-3.93h90.14c2.94,0,3.92,1.48,3.92,3.93Z"/><path class="cls-2" d="M997.6,0a3.61,3.61,0,0,1,3.92,3.93V192.05A3.61,3.61,0,0,1,997.6,196H973.35a4.21,4.21,0,0,1-4.41-3.19L931.46,88.19h-1.23V192.05c0,2.45-1.22,3.92-3.91,3.92H900.84a3.61,3.61,0,0,1-3.92-3.92V3.93A3.61,3.61,0,0,1,900.84,0h24.25a4.24,4.24,0,0,1,4.41,3.19L966.73,107.3h1.47V3.93c0-2.45,1.23-3.93,3.92-3.93Z"/><path class="cls-2" d="M1026,3.93A3.61,3.61,0,0,1,1029.92,0h58.79c23,0,35.27,12.25,35.27,35.28V95.05c0,22.78-12.24,35.27-35.27,35.27h-29.4v61.73c0,2.45-1.22,3.92-3.91,3.92h-25.48a3.61,3.61,0,0,1-3.92-3.92ZM1080.87,98c6.61,0,9.8-3.68,9.8-9.8v-46c0-6.37-3.19-9.8-9.8-9.8h-21.56V98Z"/><path class="cls-2" d="M1246.7,95.05c0,16.41-6.13,27.19-17.88,32.33l16.9,64.18c.73,2.94-.74,4.41-3.43,4.41h-25.48c-2.45,0-3.67-1.23-4.16-3.43l-16.41-62.22h-16.91v61.73a3.6,3.6,0,0,1-3.91,3.92h-25.48a3.61,3.61,0,0,1-3.92-3.92V3.93A3.61,3.61,0,0,1,1149.94,0h61.49c23,0,35.27,12.25,35.27,35.28ZM1203.59,98c6.37,0,9.79-3.43,9.79-9.8v-46c0-6.37-3.42-9.8-9.79-9.8h-24.26V98Z"/><path class="cls-2" d="M1266.28,35.28c0-23,12.25-35.28,35.27-35.28H1329c23,0,35.27,12.25,35.27,35.28V160.7c0,23-12.24,35.27-35.27,35.27h-27.44c-23,0-35.27-12.25-35.27-35.27Zm56.58,129.09c6.37,0,9.8-3.18,9.8-9.8V41.4c0-6.37-3.43-9.8-9.8-9.8h-14.2c-6.37,0-9.8,3.43-9.8,9.8V154.57c0,6.62,3.43,9.8,9.8,9.8Z"/><path class="cls-2" d="M1487,80.35c0,9.07-6.61,15.93-15.43,17.39v.49c8.82,1.47,15.43,8.33,15.43,17.39V160.7c0,23-12.49,35.27-35.51,35.27h-58.8a3.6,3.6,0,0,1-3.91-3.92V3.93c0-2.7,1.47-3.93,3.91-3.93h58.8c23,0,35.51,12.25,35.51,35.28ZM1454.4,42.14c0-6.37-3.19-9.8-9.81-9.8H1422.3V81.82h22.29c6.37,0,9.81-3.42,9.81-9.55Zm0,81.81c0-6.37-3.19-9.8-9.81-9.8H1422.3v49.49h22.29c6.37,0,9.81-3.19,9.81-9.8Z"/><path class="cls-2" d="M1609.19,28.42c0,2.45-1,4.16-3.91,4.16H1544v49h46.78c2.45,0,3.92,1.47,3.92,4.17V110c0,2.69-1.47,4.16-3.92,4.16H1544v49.49h61.24c2.94,0,3.91,1.22,3.91,3.91v24.5c0,2.45-1,3.92-3.91,3.92h-90.15c-2.2,0-3.67-1.47-3.67-3.92V3.93c0-2.45,1.47-3.93,3.67-3.93h90.15c2.94,0,3.91,1.48,3.91,3.93Z"/><path class="cls-2" d="M1727.34,0c2.69,0,3.92,1.48,3.92,3.93V28.42c0,2.45-1.23,3.92-3.92,3.92h-28.41V192.05c0,2.69-1.23,3.92-3.93,3.92h-25.47c-2.45,0-3.92-1.23-3.92-3.92V32.34h-28.42a3.6,3.6,0,0,1-3.91-3.92V3.93A3.61,3.61,0,0,1,1637.19,0Z"/><path class="cls-2" d="M1846.13,28.42c0,2.45-1,4.16-3.92,4.16H1781v49h46.79c2.45,0,3.92,1.47,3.92,4.17V110c0,2.69-1.47,4.16-3.92,4.16H1781v49.49h61.24c2.94,0,3.92,1.22,3.92,3.91v24.5c0,2.45-1,3.92-3.92,3.92h-90.14c-2.21,0-3.68-1.47-3.68-3.92V3.93c0-2.45,1.47-3.93,3.68-3.93h90.14c2.94,0,3.92,1.48,3.92,3.93Z"/><path class="cls-2" d="M1966.39,61.73a3.61,3.61,0,0,1-3.92,3.92H1938c-2.7,0-3.92-1.47-3.92-3.92V42.14c0-6.37-3.43-9.8-9.8-9.8h-12.74c-6.61,0-9.8,3.43-9.8,9.8v111.7c0,6.61,3.43,9.8,9.8,9.8h12.74c6.37,0,9.8-3.19,9.8-9.8v-19.6c0-2.44,1.22-3.92,3.92-3.92h24.49a3.61,3.61,0,0,1,3.92,3.92V160.7c0,23-12.49,35.27-35.27,35.27h-27.44c-23,0-35.51-12.25-35.51-35.27V35.28c0-23,12.49-35.28,35.51-35.28h27.44c22.78,0,35.27,12.25,35.27,35.28Z"/><path class="cls-2" d="M2055.54,3.93A3.62,3.62,0,0,1,2059.47,0h25.22c2.95,0,4.17,1.48,4.17,3.93V192.05c0,2.45-1.22,3.92-4.17,3.92h-25.22a3.61,3.61,0,0,1-3.93-3.92v-77.9h-31.35v77.9a3.61,3.61,0,0,1-3.92,3.92H1995c-2.94,0-4.16-1.47-4.16-3.92V3.93c0-2.45,1.22-3.93,4.16-3.93h25.23a3.61,3.61,0,0,1,3.92,3.93V81.82h31.35Z"/><path class="cls-2" d="M2214,0a3.61,3.61,0,0,1,3.92,3.93V192.05A3.61,3.61,0,0,1,2214,196h-24.25a4.21,4.21,0,0,1-4.41-3.19L2147.88,88.19h-1.22V192.05c0,2.45-1.23,3.92-3.92,3.92h-25.48a3.61,3.61,0,0,1-3.92-3.92V3.93A3.61,3.61,0,0,1,2117.26,0h24.25a4.22,4.22,0,0,1,4.41,3.19l37.23,104.11h1.47V3.93c0-2.45,1.23-3.93,3.92-3.93Z"/><path class="cls-2" d="M2271.82,0a3.61,3.61,0,0,1,3.92,3.93V192.05a3.61,3.61,0,0,1-3.92,3.92h-25.48c-2.69,0-3.92-1.47-3.92-3.92V3.93c0-2.45,1.23-3.93,3.92-3.93Z"/><path class="cls-2" d="M2379.1,196c-2.94,0-4.65-1.23-5.63-3.68l-30.87-72.74-9.06,17.39v54.13c0,3.18-1.71,4.9-4.9,4.9h-23.51c-3.19,0-4.9-1.72-4.9-4.9V4.9c0-3.18,1.71-4.9,4.9-4.9h23.51c3.19,0,4.9,1.72,4.9,4.9V80.84l37.72-77.16c1.23-2.45,2.94-3.68,5.64-3.68h25.72c3.67,0,5.14,2.45,3.43,5.88l-41.64,85.49,44.33,99c1.72,3.18.25,5.63-3.67,5.63Z"/><path class="cls-3" d="M883.46,873.88c.42-5.65.67-12.75.67-18.64v-100h7.94v53.4h.34c5.34-10.36,15.25-16.79,29.33-16.79,20.34,0,34.34,17,34.34,41.07,0,28.7-18.17,42.82-35.76,42.82-13,0-22.36-5.22-28.71-16.29h-.42l-.54,14.46Zm8.61-31a25,25,0,0,0,.71,5.85c3.43,12.33,13.83,20.35,26.41,20.35,18.34,0,28.87-15,28.87-36,0-18.43-10.07-34.72-28.2-34.72-11.78,0-23,8.11-26.74,21.48a25.26,25.26,0,0,0-1,7Z"/><path class="cls-3" d="M1045,833c0,30-20.52,42.7-38.4,42.7-20.76,0-36.77-16.12-36.77-41.32,0-27.45,18-42.57,37.94-42.57C1029.88,791.82,1045,808.45,1045,833Zm-67.14,1c0,20.06,12.78,35.1,29.28,35.1,16.67,0,29.84-15.16,29.84-35.72,0-14.67-8.28-35-29.42-35C987.09,798.42,977.82,816.72,977.82,834Z"/><path class="cls-3" d="M1129.28,755.21v100c0,5.89.25,13,.67,18.64h-7.19l-.54-15.21h-.42c-4.09,8.94-13.7,17-28.53,17-19.77,0-34.56-16.54-34.56-40.48-.12-26.74,16.34-43.41,36.15-43.41,13.83,0,22.56,7.18,26.15,14.12h.34V755.21Zm-7.93,70.2a33.77,33.77,0,0,0-.8-7.32,25.85,25.85,0,0,0-25.32-19.67c-17.42,0-28.49,15.21-28.49,36,0,18.05,9,34.72,28.12,34.72,11.44,0,22.22-7.64,25.65-21a23.81,23.81,0,0,0,.84-6.64Z"/><path class="cls-3" d="M1157.49,833c0,25.61,14,35.77,30.5,35.77,11.7,0,17.76-2.34,22.31-4.55l2,6.26c-3.09,1.67-11.32,5.14-25.32,5.14-23.06,0-37.39-16.8-37.39-40.28,0-26.78,15.33-43.53,36.06-43.53,26.28,0,31.25,24.69,31.25,36.26a27.41,27.41,0,0,1-.25,4.93Zm51.14-6.35c.21-11.2-4.47-28.24-24-28.24-17.63,0-25.28,15.87-26.74,28.24Z"/><path class="cls-3" d="M1237.34,812.83c0-7.35-.25-12.87-.67-19.18h7.4l.58,14.5h.34c4.39-9,14.45-16.33,27.62-16.33,7.64,0,28,3.92,28,34v48.09h-7.94V826.5c0-14.63-5.64-27.87-22.23-27.87-11.28,0-20.89,8.06-24.06,18.46a26.06,26.06,0,0,0-1.09,7.15v49.64h-7.94Z"/><path class="cls-3" d="M1326.89,819.27c0-10-.25-18-.67-25.62h7.6l.59,15.21h.33c5.77-10.61,15.67-17,29.59-17,20.59,0,34.51,17,34.51,40.61,0,28.7-17.09,43.28-36.48,43.28-11.45,0-21.64-5.18-27.2-14.83h-.33V907h-7.94Zm7.94,23a29.31,29.31,0,0,0,.71,6.39,27,27,0,0,0,26.36,20.43c18.43,0,28.91-15,28.91-36.35,0-18-10.07-34.34-28.24-34.34-11.74,0-23,8.11-26.57,21.39a29.79,29.79,0,0,0-1.17,6.85Z"/><path class="cls-3" d="M1419.15,817.72c0-8-.25-16.29-.67-24.07h7.35l.34,16.3h.46c3.51-10.16,11.78-18.13,22.77-18.13a13.68,13.68,0,0,1,3.26.37v7.6a18.45,18.45,0,0,0-3.85-.25c-11,0-18.88,9.57-21,22.44a44.25,44.25,0,0,0-.67,7.61v44.29h-7.94Z"/><path class="cls-3" d="M1535.18,833c0,30-20.51,42.7-38.39,42.7-20.77,0-36.77-16.12-36.77-41.32,0-27.45,18-42.57,37.94-42.57C1520.1,791.82,1535.18,808.45,1535.18,833ZM1468,834c0,20.06,12.79,35.1,29.29,35.1,16.67,0,29.83-15.16,29.83-35.72,0-14.67-8.27-35-29.41-35C1477.32,798.42,1468,816.72,1468,834Z"/><path class="cls-3" d="M1554.87,873.88c.42-5.65.67-12.75.67-18.64v-100h7.94v53.4h.33c5.35-10.36,15.25-16.79,29.33-16.79,20.35,0,34.35,17,34.35,41.07,0,28.7-18.18,42.82-35.77,42.82-13,0-22.35-5.22-28.7-16.29h-.42l-.54,14.46Zm8.61-31a25,25,0,0,0,.71,5.85c3.42,12.33,13.83,20.35,26.41,20.35,18.34,0,28.86-15,28.86-36,0-18.43-10.06-34.72-28.2-34.72-11.78,0-23,8.11-26.74,21.48a25.67,25.67,0,0,0-1,7Z"/><path class="cls-3" d="M1649.05,833c0,25.61,14,35.77,30.51,35.77,11.69,0,17.75-2.34,22.31-4.55l2,6.26c-3.09,1.67-11.32,5.14-25.32,5.14-23.06,0-37.39-16.8-37.39-40.28,0-26.78,15.33-43.53,36.06-43.53,26.28,0,31.25,24.69,31.25,36.26a27.41,27.41,0,0,1-.25,4.93Zm51.14-6.35c.21-11.2-4.46-28.24-24-28.24-17.63,0-25.28,15.87-26.74,28.24Z"/><path class="cls-3" d="M1739.94,770.42v23.23h22.85v6.44h-22.85v52.14c0,10.2,3.17,16.59,11.78,16.59a28,28,0,0,0,9.11-1.25l1,6.14a28.79,28.79,0,0,1-11.07,1.92c-5.85,0-10.7-1.84-13.83-5.68-3.64-4.22-4.89-11-4.89-19.14V800.09h-13.54v-6.44H1732V773Z"/><path class="cls-3" d="M1780.76,833c0,25.61,14,35.77,30.5,35.77,11.7,0,17.76-2.34,22.31-4.55l2,6.26c-3.09,1.67-11.32,5.14-25.32,5.14-23.06,0-37.39-16.8-37.39-40.28,0-26.78,15.33-43.53,36-43.53,26.29,0,31.26,24.69,31.26,36.26A27.41,27.41,0,0,1,1840,833Zm51.14-6.35c.21-11.2-4.47-28.24-24-28.24-17.63,0-25.28,15.87-26.74,28.24Z"/><path class="cls-3" d="M1915.93,870.41a52.72,52.72,0,0,1-23.44,5.22c-23.1,0-38.52-16.84-38.52-41,0-25.52,17.38-42.86,41.36-42.86,9.86,0,17.93,2.79,21.06,5l-2.84,6.6c-3.93-2.26-10.07-4.68-19-4.68-21.52,0-32.55,16.46-32.55,35.35,0,21,13.24,34.72,31.71,34.72a45.5,45.5,0,0,0,20.06-4.64Z"/><path class="cls-3" d="M1935.16,755.21h7.93V808h.34a29.29,29.29,0,0,1,11-11.57,30.51,30.51,0,0,1,16.17-4.59c7.6,0,27.86,3.8,27.86,33.67v48.39h-7.93V826.37c0-14.46-5.69-27.62-22.11-27.62-11.36,0-20.76,8.19-24.19,18.18a22.56,22.56,0,0,0-1.09,7.9v49h-7.93Z"/><path class="cls-3" d="M2024.74,812.83c0-7.35-.25-12.87-.66-19.18h7.39l.59,14.5h.33c4.39-9,14.46-16.33,27.62-16.33,7.64,0,28,3.92,28,34v48.09h-7.94V826.5c0-14.63-5.64-27.87-22.22-27.87-11.29,0-20.9,8.06-24.07,18.46a26.06,26.06,0,0,0-1.09,7.15v49.64h-7.94Z"/><path class="cls-3" d="M2124.73,770.72c0,3.72-2.46,6.93-6.68,6.93-3.63,0-6.18-3.21-6.18-6.93a6.74,6.74,0,0,1,6.47-6.94C2122.14,763.78,2124.73,766.91,2124.73,770.72Zm-10.4,103.16V793.65h7.94v80.23Z"/><path class="cls-3" d="M2157.16,832.26h.33c2-2.47,5.27-6.18,7.78-8.82l28.28-29.79h9.74l-32.38,33.26,36.89,47h-9.69l-32.76-42.08-8.19,8.61v33.47h-7.94V755.21h7.94Z"/><path class="cls-3" d="M2219,868.28c0-4.39,2.84-7.61,6.85-7.61s6.73,3.22,6.73,7.61c0,4-2.63,7.43-6.85,7.43C2221.68,875.71,2218.84,872.29,2219,868.28Z"/><path class="cls-3" d="M2316.48,755.21v100c0,5.89.25,13,.67,18.64H2310l-.55-15.21H2309c-4.09,8.94-13.7,17-28.53,17-19.77,0-34.55-16.54-34.55-40.48-.13-26.74,16.33-43.41,36.14-43.41,13.82,0,22.56,7.18,26.15,14.12h.34V755.21Zm-7.93,70.2a33.77,33.77,0,0,0-.8-7.32,25.85,25.85,0,0,0-25.32-19.67c-17.42,0-28.49,15.21-28.49,36,0,18.05,9,34.72,28.12,34.72,11.44,0,22.22-7.64,25.65-21a23.81,23.81,0,0,0,.84-6.64Z"/><path class="cls-3" d="M2344.69,833c0,25.61,14,35.77,30.51,35.77,11.69,0,17.75-2.34,22.31-4.55l2,6.26c-3.09,1.67-11.32,5.14-25.32,5.14-23.06,0-37.39-16.8-37.39-40.28,0-26.78,15.33-43.53,36.06-43.53,26.28,0,31.25,24.69,31.25,36.26a27.41,27.41,0,0,1-.25,4.93Zm51.14-6.35c.21-11.2-4.47-28.24-24-28.24-17.63,0-25.28,15.87-26.74,28.24Z"/><path class="cls-2" d="M159.85,169.47l35.67-67.21h0a123.43,123.43,0,0,1,22.71,146.09l-35.67,67.22h0A123.43,123.43,0,0,1,159.85,169.47Z"/><path class="cls-2" d="M117.37,203.92,138,277.15h0A123.43,123.43,0,0,1,20.66,187.24L0,114H0A123.43,123.43,0,0,1,117.37,203.92Z"/><path class="cls-1" d="M482.19,949.91l-.69-.59L492.89,886l60.52-21.79,49.13,41.51-.11.61a348.64,348.64,0,0,0,45.31-31.86h0l-22.48-60.27,41-49.61,63.44,10.67.18.48a346,346,0,0,0,29.84-71.19l-.38.17-52-37.85,6.77-64L772.41,577a347.34,347.34,0,0,0-9-54.45l-63.9-6L672.74,458l37.11-52.25a348.6,348.6,0,0,0-36.5-43.53L561.7,473.87a189.33,189.33,0,0,1,54.08,132.77c0,104.91-85.08,190-190,189.94l0,157.9A350.85,350.85,0,0,0,482.19,949.91Z"/><path class="cls-4" d="M558.15,629.48a133.55,133.55,0,0,1-264.77,1.11C384.59,673.81,467,586.12,558.15,629.48Z"/><path class="cls-2" d="M425.77,258.77A346.14,346.14,0,0,0,219.51,326.6L348.57,433.08a189.91,189.91,0,0,1,213.08,40.8L673.28,362.24A346.68,346.68,0,0,0,425.77,258.77Z"/><path class="cls-5" d="M536.48,496.1a156.54,156.54,0,0,0-186.71-26.17l-166.4-137.3L148.57,368,288.15,532.14a156.58,156.58,0,1,0,248.33-36Z"/><path class="cls-3" d="M235.8,606.64a189.11,189.11,0,0,1,15-73.95L142.32,405.07A346.06,346.06,0,0,0,77.9,606.64c0,192.1,155.74,347.87,347.87,347.87V796.61C320.85,796.61,235.8,711.56,235.8,606.64Z"/><path class="cls-4" d="M558.15,627.76a133.56,133.56,0,0,1-264.77,1.1C384.59,672.09,467,584.4,558.15,627.76Z"/><circle class="cls-4" cx="163.87" cy="502.56" r="4.86"/><circle class="cls-4" cx="123.73" cy="610.49" r="4.86"/><circle class="cls-4" cx="173.6" cy="635.23" r="4.86"/><circle class="cls-4" cx="154.15" cy="707.54" r="4.86"/><circle class="cls-4" cx="232.64" cy="771.59" r="4.86"/><circle class="cls-4" cx="200.39" cy="588.87" r="4.86"/><circle class="cls-4" cx="195.53" cy="787.98" r="4.86"/><circle class="cls-4" cx="327.26" cy="802.56" r="4.86"/><circle class="cls-4" cx="282.2" cy="865.76" r="4.86"/><circle class="cls-4" cx="350.82" cy="834.46" r="4.86"/></svg>