<svg width="30" height="19" viewBox="0 0 30 19" fill="none" xmlns="http://www.w3.org/2000/svg">
    <g clip-path="url(#clip0_436_270)">
        <path d="M29.2983 0.00170898H0V18.1124H29.2983V0.00170898Z" fill="white"/>
        <path d="M29.3007 7.24859H16.4002V0.00292969H12.8788V7.24859H0.0124512V10.8695H12.8788V18.1122H16.4002V10.8695H29.3007V7.24859Z" fill="#CE1124"/>
        <path d="M0.000488281 2.1106V6.05393H6.39081L0.000488281 2.1106Z" fill="#00247D"/>
        <path d="M3.52603 0.000976562L3.43237 0.00598715L11.7185 5.14599V0.000976562H3.52603Z" fill="#00247D"/>
        <path d="M9.83448 6.02949L0.000488281 0.00244141V1.42303L7.49118 6.02949H9.83448Z" fill="#CE1124"/>
        <path d="M19.4717 12.0835L29.3058 18.1105V16.69L21.8151 12.0835H19.4717Z" fill="#CE1124"/>
        <path d="M0.000244141 16.0322V12.0889H6.39057L0.000244141 16.0322Z" fill="#00247D"/>
        <path d="M3.52579 18.1416L3.43213 18.1366L11.7182 12.9966V18.1416H3.52579Z" fill="#00247D"/>
        <path d="M9.78438 12.083L0.00708008 18.1073L2.29368 18.1099L11.728 12.328V12.083H9.78438Z" fill="#CE1124"/>
        <path d="M29.3058 2.10962V6.05278H22.9155L29.3058 2.10962Z" fill="#00247D"/>
        <path d="M25.7803 0L25.874 0.00501059L17.5879 5.14501V0H25.7803Z" fill="#00247D"/>
        <path d="M29.2966 0.00847356L27.0972 0.00830078L17.5964 5.83095V6.03518H19.6065L29.2966 0.00847356Z" fill="#CE1124"/>
        <path d="M29.3058 16.0306V12.0874H22.9155L29.3058 16.0306Z" fill="#00247D"/>
        <path d="M25.7803 18.1401L25.874 18.1351L17.5879 12.9951V18.1401H25.7803Z" fill="#00247D"/>
    </g>
    <defs>
        <clipPath id="clip0_436_270">
            <rect width="29.306" height="18.1418" fill="white"/>
        </clipPath>
    </defs>
</svg>
